<mxfile host="Electron" modified="2023-10-11T06:37:53.989Z" agent="Mozilla/5.0 (Windows NT 10.0; Win64; x64) AppleWebKit/537.36 (KHTML, like Gecko) draw.io/21.6.5 Chrome/114.0.5735.243 Electron/25.3.1 Safari/537.36" etag="ZO4VhtnlNeY6SI1mZgrl" version="21.6.5" type="device">
  <diagram id="C5RBs43oDa-KdzZeNtuy" name="Page-1">
    <mxGraphModel dx="1235" dy="731" grid="1" gridSize="8" guides="1" tooltips="1" connect="1" arrows="1" fold="1" page="1" pageScale="1" pageWidth="827" pageHeight="1169" math="0" shadow="0">
      <root>
        <mxCell id="WIyWlLk6GJQsqaUBKTNV-0" />
        <mxCell id="WIyWlLk6GJQsqaUBKTNV-1" parent="WIyWlLk6GJQsqaUBKTNV-0" />
        <mxCell id="NfFAN9i1Wn4aYH5utW7M-0" style="edgeStyle=orthogonalEdgeStyle;rounded=0;orthogonalLoop=1;jettySize=auto;html=1;exitX=0.885;exitY=0.971;exitDx=0;exitDy=0;entryX=0;entryY=1;entryDx=0;entryDy=0;exitPerimeter=0;" parent="WIyWlLk6GJQsqaUBKTNV-1" source="go71uuyFb68-o8KQwj31-0" target="go71uuyFb68-o8KQwj31-1" edge="1">
          <mxGeometry relative="1" as="geometry">
            <mxPoint x="408" y="576" as="targetPoint" />
            <Array as="points">
              <mxPoint x="144" y="552" />
              <mxPoint x="375" y="552" />
            </Array>
          </mxGeometry>
        </mxCell>
        <mxCell id="go71uuyFb68-o8KQwj31-0" value="&lt;b&gt;&lt;font style=&quot;font-size: 15px;&quot;&gt;Admin&lt;/font&gt;&lt;/b&gt;" style="rounded=0;whiteSpace=wrap;html=1;strokeWidth=1;" parent="WIyWlLk6GJQsqaUBKTNV-1" vertex="1">
          <mxGeometry x="8" y="472" width="154" height="64" as="geometry" />
        </mxCell>
        <mxCell id="go71uuyFb68-o8KQwj31-1" value="" style="ellipse;whiteSpace=wrap;html=1;aspect=fixed;strokeWidth=1;" parent="WIyWlLk6GJQsqaUBKTNV-1" vertex="1">
          <mxGeometry x="352" y="400" width="158" height="158" as="geometry" />
        </mxCell>
        <mxCell id="go71uuyFb68-o8KQwj31-2" value="&lt;font style=&quot;font-size: 17px;&quot;&gt;Online&amp;nbsp;&lt;br style=&quot;font-size: 17px;&quot;&gt;Hardware&lt;br style=&quot;font-size: 17px;&quot;&gt;Store&lt;/font&gt;" style="text;html=1;align=center;verticalAlign=middle;resizable=0;points=[];autosize=1;strokeColor=none;fillColor=none;strokeWidth=1;fontSize=17;fontStyle=1" parent="WIyWlLk6GJQsqaUBKTNV-1" vertex="1">
          <mxGeometry x="383" y="439" width="96" height="80" as="geometry" />
        </mxCell>
        <mxCell id="go71uuyFb68-o8KQwj31-6" value="" style="endArrow=classic;html=1;rounded=0;exitX=0.75;exitY=0;exitDx=0;exitDy=0;strokeWidth=1;" parent="WIyWlLk6GJQsqaUBKTNV-1" source="go71uuyFb68-o8KQwj31-0" edge="1">
          <mxGeometry width="50" height="50" relative="1" as="geometry">
            <mxPoint x="162" y="471.005" as="sourcePoint" />
            <mxPoint x="392" y="408" as="targetPoint" />
            <Array as="points">
              <mxPoint x="124" y="384" />
              <mxPoint x="256" y="384" />
              <mxPoint x="392" y="384" />
            </Array>
          </mxGeometry>
        </mxCell>
        <mxCell id="7LXTiwQA6VMSmtcWT2XY-0" value="" style="endArrow=classic;html=1;rounded=0;exitX=0.896;exitY=-0.013;exitDx=0;exitDy=0;strokeWidth=1;exitPerimeter=0;" parent="WIyWlLk6GJQsqaUBKTNV-1" edge="1" source="go71uuyFb68-o8KQwj31-0">
          <mxGeometry width="50" height="50" relative="1" as="geometry">
            <mxPoint x="184" y="424.495" as="sourcePoint" />
            <mxPoint x="374" y="425.15" as="targetPoint" />
            <Array as="points">
              <mxPoint x="144" y="472" />
              <mxPoint x="144" y="424" />
            </Array>
          </mxGeometry>
        </mxCell>
        <mxCell id="7LXTiwQA6VMSmtcWT2XY-1" value="" style="endArrow=classic;html=1;rounded=0;strokeWidth=1;" parent="WIyWlLk6GJQsqaUBKTNV-1" edge="1">
          <mxGeometry width="50" height="50" relative="1" as="geometry">
            <mxPoint x="162" y="472" as="sourcePoint" />
            <mxPoint x="352" y="472" as="targetPoint" />
          </mxGeometry>
        </mxCell>
        <mxCell id="OEv7smBJ8PGCVRWERw6C-0" value="&lt;font style=&quot;font-size: 14px;&quot;&gt;Login&lt;/font&gt;" style="text;html=1;align=center;verticalAlign=middle;resizable=0;points=[];autosize=1;strokeColor=none;fillColor=none;fontSize=14;" parent="WIyWlLk6GJQsqaUBKTNV-1" vertex="1">
          <mxGeometry x="236" y="352" width="56" height="40" as="geometry" />
        </mxCell>
        <mxCell id="HgP1Isz0QvgKKk855VvQ-0" value="&lt;b&gt;&lt;font style=&quot;font-size: 15px;&quot;&gt;User&lt;/font&gt;&lt;/b&gt;" style="rounded=0;whiteSpace=wrap;html=1;strokeWidth=1;" parent="WIyWlLk6GJQsqaUBKTNV-1" vertex="1">
          <mxGeometry x="668" y="462" width="154" height="64" as="geometry" />
        </mxCell>
        <mxCell id="NfFAN9i1Wn4aYH5utW7M-10" value="" style="endArrow=classic;html=1;rounded=0;exitX=0.314;exitY=-0.008;exitDx=0;exitDy=0;strokeWidth=1;exitPerimeter=0;" parent="WIyWlLk6GJQsqaUBKTNV-1" source="HgP1Isz0QvgKKk855VvQ-0" edge="1">
          <mxGeometry width="50" height="50" relative="1" as="geometry">
            <mxPoint x="713" y="406" as="sourcePoint" />
            <mxPoint x="448" y="400" as="targetPoint" />
            <Array as="points">
              <mxPoint x="716" y="384" />
              <mxPoint x="584" y="384" />
              <mxPoint x="448" y="384" />
            </Array>
          </mxGeometry>
        </mxCell>
        <mxCell id="NfFAN9i1Wn4aYH5utW7M-11" value="&lt;font style=&quot;font-size: 14px;&quot;&gt;Registration&lt;/font&gt;" style="text;html=1;align=center;verticalAlign=middle;resizable=0;points=[];autosize=1;strokeColor=none;fillColor=none;fontSize=14;" parent="WIyWlLk6GJQsqaUBKTNV-1" vertex="1">
          <mxGeometry x="548" y="352" width="96" height="40" as="geometry" />
        </mxCell>
        <mxCell id="39QU_HT6DyWOAZmGMB1b-0" value="Manage Product" style="text;html=1;align=center;verticalAlign=middle;resizable=0;points=[];autosize=1;strokeColor=none;fillColor=none;fontSize=13;" vertex="1" parent="WIyWlLk6GJQsqaUBKTNV-1">
          <mxGeometry x="208" y="388" width="112" height="40" as="geometry" />
        </mxCell>
        <mxCell id="39QU_HT6DyWOAZmGMB1b-1" value="Manage Order" style="text;html=1;align=center;verticalAlign=middle;resizable=0;points=[];autosize=1;strokeColor=none;fillColor=none;fontSize=13;" vertex="1" parent="WIyWlLk6GJQsqaUBKTNV-1">
          <mxGeometry x="212" y="426" width="104" height="40" as="geometry" />
        </mxCell>
        <mxCell id="39QU_HT6DyWOAZmGMB1b-2" value="" style="endArrow=classic;html=1;rounded=0;strokeWidth=1;" edge="1" parent="WIyWlLk6GJQsqaUBKTNV-1">
          <mxGeometry width="50" height="50" relative="1" as="geometry">
            <mxPoint x="162" y="503.5" as="sourcePoint" />
            <mxPoint x="352" y="503.5" as="targetPoint" />
          </mxGeometry>
        </mxCell>
        <mxCell id="39QU_HT6DyWOAZmGMB1b-3" value="Manage Customer" style="text;html=1;align=center;verticalAlign=middle;resizable=0;points=[];autosize=1;strokeColor=none;fillColor=none;fontSize=13;" vertex="1" parent="WIyWlLk6GJQsqaUBKTNV-1">
          <mxGeometry x="200" y="468" width="128" height="40" as="geometry" />
        </mxCell>
        <mxCell id="39QU_HT6DyWOAZmGMB1b-4" value="Manage Payment" style="text;html=1;align=center;verticalAlign=middle;resizable=0;points=[];autosize=1;strokeColor=none;fillColor=none;fontSize=13;" vertex="1" parent="WIyWlLk6GJQsqaUBKTNV-1">
          <mxGeometry x="204" y="511" width="120" height="40" as="geometry" />
        </mxCell>
        <mxCell id="39QU_HT6DyWOAZmGMB1b-5" value="" style="endArrow=classic;html=1;rounded=0;exitX=0.306;exitY=0.967;exitDx=0;exitDy=0;strokeWidth=1;entryX=0.75;entryY=1;entryDx=0;entryDy=0;exitPerimeter=0;" edge="1" parent="WIyWlLk6GJQsqaUBKTNV-1" source="go71uuyFb68-o8KQwj31-1" target="go71uuyFb68-o8KQwj31-0">
          <mxGeometry width="50" height="50" relative="1" as="geometry">
            <mxPoint x="387" y="616" as="sourcePoint" />
            <mxPoint x="119" y="680" as="targetPoint" />
            <Array as="points">
              <mxPoint x="400" y="600" />
              <mxPoint x="248" y="600" />
              <mxPoint x="124" y="600" />
            </Array>
          </mxGeometry>
        </mxCell>
        <mxCell id="39QU_HT6DyWOAZmGMB1b-6" value="View Feedback" style="text;html=1;align=center;verticalAlign=middle;resizable=0;points=[];autosize=1;strokeColor=none;fillColor=none;fontSize=13;" vertex="1" parent="WIyWlLk6GJQsqaUBKTNV-1">
          <mxGeometry x="208" y="554" width="112" height="40" as="geometry" />
        </mxCell>
        <mxCell id="39QU_HT6DyWOAZmGMB1b-7" value="" style="endArrow=classic;html=1;rounded=0;exitX=0.164;exitY=0.019;exitDx=0;exitDy=0;strokeWidth=1;exitPerimeter=0;entryX=1;entryY=0;entryDx=0;entryDy=0;" edge="1" parent="WIyWlLk6GJQsqaUBKTNV-1" source="HgP1Isz0QvgKKk855VvQ-0" target="go71uuyFb68-o8KQwj31-1">
          <mxGeometry width="50" height="50" relative="1" as="geometry">
            <mxPoint x="705" y="429.15" as="sourcePoint" />
            <mxPoint x="477" y="475" as="targetPoint" />
            <Array as="points">
              <mxPoint x="693" y="423" />
            </Array>
          </mxGeometry>
        </mxCell>
        <mxCell id="39QU_HT6DyWOAZmGMB1b-8" value="Login" style="text;html=1;align=center;verticalAlign=middle;resizable=0;points=[];autosize=1;strokeColor=none;fillColor=none;fontSize=13;" vertex="1" parent="WIyWlLk6GJQsqaUBKTNV-1">
          <mxGeometry x="568" y="384" width="56" height="40" as="geometry" />
        </mxCell>
        <mxCell id="39QU_HT6DyWOAZmGMB1b-9" value="" style="endArrow=classic;html=1;rounded=0;strokeWidth=1;exitX=0.992;exitY=0.393;exitDx=0;exitDy=0;fontSize=15;entryX=0;entryY=0;entryDx=0;entryDy=0;exitPerimeter=0;" edge="1" parent="WIyWlLk6GJQsqaUBKTNV-1" source="go71uuyFb68-o8KQwj31-1" target="HgP1Isz0QvgKKk855VvQ-0">
          <mxGeometry width="50" height="50" relative="1" as="geometry">
            <mxPoint x="512" y="462" as="sourcePoint" />
            <mxPoint x="440" y="585" as="targetPoint" />
          </mxGeometry>
        </mxCell>
        <mxCell id="39QU_HT6DyWOAZmGMB1b-10" value="View Product" style="text;html=1;align=center;verticalAlign=middle;resizable=0;points=[];autosize=1;strokeColor=none;fillColor=none;fontSize=13;" vertex="1" parent="WIyWlLk6GJQsqaUBKTNV-1">
          <mxGeometry x="548" y="426" width="96" height="40" as="geometry" />
        </mxCell>
        <mxCell id="39QU_HT6DyWOAZmGMB1b-11" value="" style="endArrow=classic;html=1;rounded=0;strokeWidth=1;entryX=0.994;entryY=0.591;entryDx=0;entryDy=0;entryPerimeter=0;exitX=0;exitY=0.5;exitDx=0;exitDy=0;" edge="1" parent="WIyWlLk6GJQsqaUBKTNV-1" source="HgP1Isz0QvgKKk855VvQ-0" target="go71uuyFb68-o8KQwj31-1">
          <mxGeometry width="50" height="50" relative="1" as="geometry">
            <mxPoint x="456" y="526" as="sourcePoint" />
            <mxPoint x="646" y="526" as="targetPoint" />
          </mxGeometry>
        </mxCell>
        <mxCell id="39QU_HT6DyWOAZmGMB1b-12" value="Make Order" style="text;html=1;align=center;verticalAlign=middle;resizable=0;points=[];autosize=1;strokeColor=none;fillColor=none;fontSize=13;" vertex="1" parent="WIyWlLk6GJQsqaUBKTNV-1">
          <mxGeometry x="556" y="459" width="88" height="40" as="geometry" />
        </mxCell>
        <mxCell id="39QU_HT6DyWOAZmGMB1b-13" value="" style="endArrow=classic;html=1;rounded=0;strokeWidth=1;entryX=0.911;entryY=0.793;entryDx=0;entryDy=0;entryPerimeter=0;exitX=0;exitY=0.5;exitDx=0;exitDy=0;" edge="1" parent="WIyWlLk6GJQsqaUBKTNV-1" target="go71uuyFb68-o8KQwj31-1">
          <mxGeometry width="50" height="50" relative="1" as="geometry">
            <mxPoint x="668" y="525.17" as="sourcePoint" />
            <mxPoint x="502.25800000000004" y="525.2999999999998" as="targetPoint" />
          </mxGeometry>
        </mxCell>
        <mxCell id="39QU_HT6DyWOAZmGMB1b-14" value="Place Order" style="text;html=1;align=center;verticalAlign=middle;resizable=0;points=[];autosize=1;strokeColor=none;fillColor=none;fontSize=13;" vertex="1" parent="WIyWlLk6GJQsqaUBKTNV-1">
          <mxGeometry x="552" y="491" width="88" height="40" as="geometry" />
        </mxCell>
        <mxCell id="39QU_HT6DyWOAZmGMB1b-16" style="edgeStyle=orthogonalEdgeStyle;rounded=0;orthogonalLoop=1;jettySize=auto;html=1;entryX=0.635;entryY=0.992;entryDx=0;entryDy=0;entryPerimeter=0;" edge="1" parent="WIyWlLk6GJQsqaUBKTNV-1" target="go71uuyFb68-o8KQwj31-1">
          <mxGeometry relative="1" as="geometry">
            <mxPoint x="576" y="608" as="targetPoint" />
            <Array as="points">
              <mxPoint x="688" y="557" />
            </Array>
            <mxPoint x="688" y="528" as="sourcePoint" />
          </mxGeometry>
        </mxCell>
        <mxCell id="39QU_HT6DyWOAZmGMB1b-17" value="Make Payment" style="text;html=1;align=center;verticalAlign=middle;resizable=0;points=[];autosize=1;strokeColor=none;fillColor=none;fontSize=13;" vertex="1" parent="WIyWlLk6GJQsqaUBKTNV-1">
          <mxGeometry x="544" y="522" width="104" height="40" as="geometry" />
        </mxCell>
        <mxCell id="39QU_HT6DyWOAZmGMB1b-18" value="" style="endArrow=classic;html=1;rounded=0;exitX=0.5;exitY=1;exitDx=0;exitDy=0;strokeWidth=1;entryX=0.5;entryY=1;entryDx=0;entryDy=0;" edge="1" parent="WIyWlLk6GJQsqaUBKTNV-1" target="go71uuyFb68-o8KQwj31-1">
          <mxGeometry width="50" height="50" relative="1" as="geometry">
            <mxPoint x="721" y="530" as="sourcePoint" />
            <mxPoint x="414" y="508" as="targetPoint" />
            <Array as="points">
              <mxPoint x="721" y="564" />
              <mxPoint x="720" y="600" />
              <mxPoint x="632" y="600" />
              <mxPoint x="480" y="600" />
              <mxPoint x="431" y="600" />
              <mxPoint x="431" y="584" />
            </Array>
          </mxGeometry>
        </mxCell>
        <mxCell id="39QU_HT6DyWOAZmGMB1b-19" value="Give Feedback" style="text;html=1;align=center;verticalAlign=middle;resizable=0;points=[];autosize=1;strokeColor=none;fillColor=none;fontSize=13;" vertex="1" parent="WIyWlLk6GJQsqaUBKTNV-1">
          <mxGeometry x="544" y="558" width="104" height="40" as="geometry" />
        </mxCell>
      </root>
    </mxGraphModel>
  </diagram>
</mxfile>
